<svg width="857" height="725" viewBox="0 0 857 725" fill="none" xmlns="http://www.w3.org/2000/svg">
<path d="M820.405 497.795C824.767 495.931 827.511 492.695 829.011 488.057L834.618 487.596L834.31 483.859L829.078 484.289L828.955 482.794C828.617 478.683 826.846 475.442 823.61 472.698L821.993 471.326L823.431 465.94C823.713 464.788 823.994 463.636 823.872 462.141C823.687 459.898 822.756 457.717 821.107 455.972C819.428 453.852 817.467 452.884 815.537 452.29C812.859 451.758 810.617 451.942 808.062 452.905C805.538 454.241 803.761 455.516 802.794 457.477C797.065 456.442 792.298 457.963 788.525 462.412C785.781 465.647 784.562 469.134 784.9 473.245C785.054 475.114 785.146 476.235 785.612 477.326C782.806 479.814 781.183 482.957 781.49 486.695C781.582 487.816 781.705 489.311 782.171 490.401C783.103 492.582 784.721 493.954 786.712 495.296C789.078 496.606 791.008 497.2 793.25 497.016C794.745 496.893 795.866 496.801 796.957 496.335L802.783 493.975L804.462 496.095C807.698 498.839 811.932 499.996 816.386 499.254L816.785 504.112L820.897 503.774L820.405 497.795ZM808.83 462.248C809.767 459.914 811.2 459.043 813.504 459.607C815.808 460.17 816.678 461.603 816.115 463.907L812.613 476.235C809.132 470.501 808.016 466.078 808.83 462.248ZM789.835 487.514C788.904 485.333 789.528 483.776 791.679 482.471C795.324 481.043 799.87 481.422 806.096 483.92L794.878 489.357C792.323 490.32 790.767 489.695 789.835 487.514ZM810.012 490.371L815.808 487.637L816.181 487.606L817.211 486.393L817.18 486.019L818.931 479.855C820.175 481.258 821.045 482.691 821.199 484.56C821.352 486.429 820.758 488.359 819.386 489.977C818.014 491.595 816.581 492.465 814.712 492.619C813.529 491.963 811.599 491.369 810.012 490.371Z" fill="#32583D"/>
<path d="M769.292 455.336C764.708 449.56 759.733 444.786 753.847 440.482C743.344 432.803 733.825 425.165 720.967 421.391C679.153 409.118 635.909 433.204 598.205 459.906C580.111 472.719 561.29 484.198 542.254 494.972C525.046 504.712 507.373 516.117 489.347 523.366C459.299 535.447 426.196 537.353 399.383 525.281C375.647 514.595 351.663 497.518 333.327 479.068C325.718 471.412 319.023 462.778 312.078 454.478C304.378 445.276 295.781 438.383 286.199 431.376C266.664 417.092 240.494 418.225 215.578 422.986C202.744 425.439 190.54 424.38 178.173 423.72C161.22 422.816 147.961 413.853 135.201 404.523C123.26 395.791 119.277 379.551 111.774 367.121C103.235 352.974 96.4134 337.586 87.4655 323.658C83.1604 316.957 78.3538 310.641 73.9434 304.022C70.185 298.381 65.4453 293.364 61.2549 288.09C54.9724 280.182 47.8727 272.905 41.12 265.474C34.7603 258.477 28.4604 249.873 20.7607 244.243C13.3886 238.852 6.01872 235.083 -2.92473 232.494C-6.46239 231.47 -11.9176 231.489 -14.8122 229.372" stroke="#E38F2C" stroke-width="3" stroke-linecap="round" stroke-dasharray="6 10"/>
</svg>
