<svg width="587" height="330" viewBox="0 0 587 330" fill="none" xmlns="http://www.w3.org/2000/svg">
<path d="M-3 295.084C12.924 297.103 27.3389 308.538 42.8794 313.217C65.4517 320.013 89.341 326.382 112.389 327.521C161.1 329.929 204.548 324.339 246.849 285.615C281.171 254.195 300.467 198.023 300.467 139.95C300.467 109.477 286.663 98.2593 267.578 99.253C255.457 99.8842 248.231 118.215 248.231 133.906C248.231 170.65 270.255 188.778 290.379 204.22C319.96 226.919 355.985 236.687 389.186 228.195C420.121 220.283 444.648 182.053 464.085 148.614C474.474 130.742 480.673 108.514 492 92" stroke="#E38F2C" stroke-width="3" stroke-linecap="round" stroke-dasharray="6 10"/>
<path d="M554.272 47.8311C553.846 43.1069 551.615 39.4982 547.665 36.64L548.957 31.1653L545.307 30.3042L544.102 35.4139L542.642 35.0695C538.627 34.1223 534.998 34.8072 531.389 37.0382L529.585 38.1537L524.906 35.1233C523.897 34.5 522.888 33.8767 521.428 33.5322C519.238 33.0156 516.876 33.2289 514.707 34.2582C512.172 35.2015 510.647 36.7681 509.486 38.4208C508.154 40.8034 507.637 42.9933 507.764 45.7204C508.256 48.5336 508.921 50.6168 510.487 52.1423C507.736 57.2725 507.711 62.2756 510.779 67.2376C513.01 70.8463 515.95 73.0812 519.965 74.0284C521.79 74.4589 522.885 74.7172 524.066 74.6106C525.567 78.0471 528.056 80.5608 531.706 81.4219C532.801 81.6803 534.261 82.0247 535.442 81.918C537.804 81.7047 539.608 80.5893 541.499 79.1088C543.475 77.2633 544.636 75.6107 545.153 73.4208C545.497 71.9609 545.755 70.8659 545.649 69.6849L545.202 63.4147L547.736 62.4714C551.345 60.2404 553.752 56.5701 554.42 52.1042L559.165 53.2236L560.112 49.2088L554.272 47.8311ZM516.889 47.8731C514.957 46.2615 514.572 44.6294 515.818 42.6117C517.065 40.594 518.697 40.2085 520.715 41.4551L531.361 48.5904C524.832 50.1325 520.28 49.8291 516.889 47.8731ZM535.06 73.7368C532.698 73.9501 531.411 72.8757 530.832 70.4275C530.598 66.5194 532.362 62.3119 536.659 57.161L538.37 69.5087C538.497 72.2358 537.422 73.5235 535.06 73.7368ZM544.004 55.4262L543.192 49.0699L543.278 48.7049L542.441 47.3516L542.076 47.2655L536.753 43.6979C538.471 42.9474 540.104 42.5619 541.929 42.9924C543.753 43.4229 545.406 44.5834 546.522 46.3878C547.637 48.1922 548.023 49.8243 547.592 51.6492C546.604 52.5719 545.443 54.2246 544.004 55.4262Z" fill="#32583D"/>
</svg>
