<svg width="857" height="725" viewBox="0 0 857 725" fill="none" xmlns="http://www.w3.org/2000/svg">
<path d="M820.958 497.795C825.252 495.931 827.954 492.695 829.431 488.057L834.95 487.596L834.648 483.859L829.496 484.289L829.376 482.794C829.043 478.683 827.299 475.442 824.114 472.698L822.521 471.326L823.937 465.94C824.215 464.788 824.492 463.636 824.371 462.141C824.189 459.898 823.272 457.717 821.649 455.972C819.996 453.852 818.066 452.884 816.165 452.29C813.529 451.758 811.322 451.942 808.807 452.905C806.322 454.241 804.573 455.516 803.62 457.477C797.98 456.442 793.288 457.963 789.573 462.412C786.871 465.647 785.672 469.134 786.004 473.245C786.155 475.114 786.246 476.235 786.705 477.326C783.943 479.814 782.345 482.957 782.647 486.695C782.738 487.816 782.859 489.311 783.318 490.401C784.235 492.582 785.828 493.954 787.788 495.296C790.117 496.606 792.017 497.2 794.225 497.016C795.696 496.893 796.8 496.801 797.874 496.335L803.61 493.975L805.263 496.095C808.448 498.839 812.616 499.996 817.001 499.254L817.395 504.112L821.442 503.774L820.958 497.795ZM809.562 462.248C810.485 459.914 811.896 459.043 814.164 459.607C816.432 460.17 817.289 461.603 816.735 463.907L813.287 476.235C809.86 470.501 808.761 466.078 809.562 462.248ZM790.863 487.514C789.946 485.333 790.56 483.776 792.677 482.471C796.266 481.043 800.742 481.422 806.871 483.92L795.827 489.357C793.312 490.32 791.78 489.695 790.863 487.514ZM810.726 490.371L816.432 487.637L816.8 487.606L817.813 486.393L817.783 486.019L819.507 479.855C820.731 481.258 821.588 482.691 821.74 484.56C821.891 486.429 821.306 488.359 819.955 489.977C818.604 491.595 817.193 492.465 815.353 492.619C814.189 491.963 812.289 491.369 810.726 490.371Z" fill="#32583D"/>
<path d="M770.639 455.336C766.126 449.56 761.228 444.786 755.433 440.482C745.093 432.803 735.722 425.165 723.063 421.391C681.899 409.118 639.326 433.204 602.206 459.906C584.393 472.719 565.865 484.198 547.124 494.972C530.183 504.712 512.785 516.117 495.038 523.366C465.457 535.447 432.867 537.353 406.47 525.281C383.103 514.595 359.491 497.518 341.44 479.068C333.949 471.412 327.358 462.778 320.521 454.478C312.94 445.276 304.476 438.383 295.043 431.376C275.811 417.092 250.047 418.225 225.518 422.986C212.883 425.439 200.868 424.38 188.693 423.72C172.004 422.816 158.95 413.853 146.389 404.523C134.633 395.791 130.712 379.551 123.326 367.121C114.919 352.974 108.203 337.586 99.3939 323.658C95.1556 316.957 90.4236 310.641 86.0816 304.022C82.3815 298.381 77.7154 293.364 73.5901 288.09C67.405 280.182 60.4155 272.905 53.7676 265.474C47.5067 258.477 41.3045 249.873 33.7243 244.243C26.4666 238.852 19.2111 235.083 10.4065 232.494C6.92373 231.47 1.55318 231.489 -1.29647 229.372" stroke="#E38F2C" stroke-width="3" stroke-linecap="round" stroke-dasharray="6 10"/>
</svg>
