<svg width="559" height="374" viewBox="0 0 559 374" fill="none" xmlns="http://www.w3.org/2000/svg">
<path d="M68.393 167.509C64.6594 170.434 62.8427 174.268 62.5899 179.137L57.2924 181.028L58.5532 184.56L63.4976 182.795L64.0019 184.207C65.3889 188.092 67.9363 190.766 71.7703 192.583L73.6873 193.491L73.6867 199.066C73.7118 200.252 73.7369 201.437 74.2412 202.85C74.9977 204.969 76.4606 206.836 78.5037 208.097C80.6729 209.712 82.817 210.141 84.835 210.217C87.5593 210.041 89.6783 209.284 91.8983 207.695C93.9922 205.753 95.3798 204.063 95.8089 201.919C101.611 201.44 105.824 198.742 108.322 193.47C110.138 189.636 110.416 185.953 109.029 182.068C108.399 180.302 108.021 179.243 107.289 178.309C109.358 175.182 110.115 171.726 108.854 168.194C108.476 167.135 107.972 165.722 107.24 164.789C105.777 162.922 103.86 162.014 101.59 161.231C98.9668 160.575 96.9488 160.499 94.8298 161.256C93.4171 161.76 92.3576 162.138 91.4242 162.87L86.404 166.653L84.2348 165.038C80.4007 163.222 76.0116 163.196 71.8996 165.062L70.2605 160.471L66.3757 161.858L68.393 167.509ZM88.7462 198.866C88.4432 201.363 87.2827 202.574 84.9115 202.624C82.5403 202.674 81.3297 201.514 81.2795 199.142L81.4828 186.328C86.3255 190.97 88.5448 194.956 88.7462 198.866ZM100.58 169.556C102.043 171.422 101.841 173.087 100.1 174.903C96.9469 177.224 92.4567 178.03 85.7973 177.222L95.2325 169.076C97.4525 167.487 99.1174 167.689 100.58 169.556ZM80.3493 172L75.4551 176.136L75.1019 176.263L74.4207 177.7L74.5468 178.053L74.4451 184.461C72.8813 183.426 71.6706 182.266 71.0402 180.5C70.4098 178.734 70.4857 176.716 71.394 174.799C72.3023 172.882 73.4628 171.671 75.2287 171.041C76.5403 171.369 78.5584 171.445 80.3493 172Z" fill="#32583D"/>
<path d="M120.839 204.601C123.551 207.35 126.437 209.4 129.801 210.987C135.802 213.82 141.267 216.809 148.398 216.765C171.588 216.619 194.162 193.516 213.625 169.815C222.965 158.441 232.751 147.764 242.681 137.487C251.658 128.197 260.823 117.781 270.34 109.893C286.203 96.7441 304.117 89.3759 319.149 91.905C332.456 94.1439 346.142 100.324 356.813 108.416C361.241 111.774 365.21 115.912 369.301 119.796C373.838 124.101 378.774 126.798 384.249 129.383C395.411 134.651 409.588 129.059 422.943 121.437C429.823 117.51 436.495 115.893 443.24 113.997C452.486 111.397 460.034 114.516 467.324 117.957C474.148 121.177 476.935 130.569 481.488 136.925C486.67 144.16 490.967 152.49 496.363 159.512C498.959 162.89 501.813 165.935 504.463 169.243C506.722 172.062 509.49 174.308 511.969 176.817C515.686 180.58 519.822 183.796 523.777 187.173C527.5 190.353 531.254 194.546 535.653 196.623C539.866 198.611 544.015 199.587 548.973 199.534C550.935 199.513 553.898 198.483 555.552 199.263" stroke="#E38F2C" stroke-width="3" stroke-linecap="round" stroke-dasharray="6 10"/>
</svg>
