<svg width="134" height="27" viewBox="0 0 134 27" fill="none" xmlns="http://www.w3.org/2000/svg">
<path d="M17.64 26L22.16 8.28H22.32V26H29.12V0.799998H18.84L15.28 16.64H15.16L11.44 0.799998H0.92V26H7.16V8.28H7.32L11.84 26H17.64ZM32.7913 8.16V26H39.2713V8.16H32.7913ZM32.7513 6.48H39.3113V0.799998H32.7513V6.48ZM55.3513 19.64C54.7513 21.04 53.6313 21.64 51.8713 21.64C49.9113 21.64 48.3113 20.6 48.1513 18.4H60.6713V16.6C60.6713 11.76 57.5113 7.68 51.5513 7.68C45.9913 7.68 41.8313 11.72 41.8313 17.36C41.8313 23.04 45.9113 26.48 51.6313 26.48C56.3513 26.48 59.6313 24.2 60.5513 20.12L55.3513 19.64ZM48.2313 15.28C48.4713 13.6 49.3913 12.32 51.4713 12.32C53.3913 12.32 54.4313 13.68 54.5113 15.28H48.2313ZM62.5344 17.08C62.5344 22.76 66.6544 26.48 72.2944 26.48C77.6544 26.48 80.6544 23.04 81.0944 18.72L75.7744 18.32C75.3344 20.52 74.2544 21.6 72.3744 21.6C70.4144 21.6 69.0544 20.28 69.0544 17.08C69.0544 13.88 70.4144 12.56 72.3744 12.56C74.2544 12.56 75.3344 13.6 75.7744 15.8L81.0944 15.44C80.6544 11.16 77.6544 7.68 72.2944 7.68C66.6544 7.68 62.5344 11.44 62.5344 17.08ZM89.3278 17.08C89.3278 14.4 90.2878 12.56 92.5678 12.56C94.8078 12.56 95.8078 14.4 95.8078 17.08C95.8078 19.76 94.8078 21.6 92.5678 21.6C90.2878 21.6 89.3278 19.76 89.3278 17.08ZM102.328 17.08C102.328 11.56 98.3678 7.68 92.5678 7.68C86.7278 7.68 82.8078 11.56 82.8078 17.08C82.8078 22.64 86.7278 26.48 92.5678 26.48C98.3678 26.48 102.328 22.64 102.328 17.08ZM104.901 0.799998V26H111.381V0.799998H104.901ZM120.461 17.08C120.461 14.4 121.421 12.56 123.701 12.56C125.941 12.56 126.941 14.4 126.941 17.08C126.941 19.76 125.941 21.6 123.701 21.6C121.421 21.6 120.461 19.76 120.461 17.08ZM133.461 17.08C133.461 11.56 129.501 7.68 123.701 7.68C117.861 7.68 113.941 11.56 113.941 17.08C113.941 22.64 117.861 26.48 123.701 26.48C129.501 26.48 133.461 22.64 133.461 17.08Z" fill="white"/>
</svg>
